{"title":"Gangster Squad 2013 WEBRip XviD AC3 - TODE","uid":8331373,"size":734999784,"categoryP":"video","categoryS":"movies","magnet":"?xt=urn:btih:ef5890709a7031f4363943a257d0925b185e5dfb&amp;dn=Gangster+Squad+2013+WEBRip+XviD+AC3+-+TODE&amp;tr=udp%3A%2F%2Ftracker.openbittorrent.com%3A80&amp;tr=udp%3A%2F%2Fopen.demonii.com%3A1337&amp;tr=udp%3A%2F%2Ftracker.coppersurfer.tk%3A6969&amp;tr=udp%3A%2F%2Fexodus.desync.com%3A6969","seeders":0,"leechers":1,"uploader":"xxxlavalxxx","files":1,"time":1364898638,"description":" &lt;a href=&quot;http://www.shotpix.com/images/68461438655022300179.jpg&quot; rel=&quot;nofollow&quot; target=&quot;_NEW&quot;&gt;http://www.shotpix.com/images/68461438655022300179.jpg&lt;/a&gt;\n\n\n &lt;a href=&quot;\nhttp://www.imdb.com/title/tt1321870/&quot; rel=&quot;nofollow&quot; target=&quot;_NEW&quot;&gt;\nhttp://www.imdb.com/title/tt1321870/&lt;/a&gt;\n\n\nPlot: Los Angeles, 1949: A secret crew of police officers led by two determined sergeants work together in an effort to take down the ruthless mob king Mickey Cohen who runs the city. \n\n\n\nDirector:\n Ruben Fleischer \n\nWriters:\n Will Beall, Paul Lieberman (book) \n\nStars:\n Sean Penn, Ryan Gosling, Emma Stone\n\nGenres:\n  Action |  Crime |  Drama |  Thriller \n\nCountry:\n USA \n\nLanguage:\n English \n\n\n\nFormat                                   : AVI\nFormat/Info                              : Audio Video Interleave\nFile size                                : 701 MiB\nDuration                                 : 1h 52mn\nOverall bit rate                         : 868 Kbps\nWriting application                      : Lavf54.59.103\n\nVideo\nID                                       : 0\nFormat                                   : MPEG-4 Visual\nFormat profile                           : Simple@L3\nFormat settings, BVOP                    : No\nFormat settings, QPel                    : No\nFormat settings, GMC                     : No warppoints\nFormat settings, Matrix                  : Default (H.263)\nCodec ID                                 : XVID\nCodec ID/Hint                            : XviD\nDuration                                 : 1h 52mn\nBit rate                                 : 729 Kbps\nWidth                                    : 640 pixels\nHeight                                   : 272 pixels\nDisplay aspect ratio                     : 2.40:1\nFrame rate                               : 23.976 fps\nColor space                              : YUV\nChroma subsampling                       : 4:2:0\nBit depth                                : 8 bits\nScan type                                : Progressive\nCompression mode                         : Lossy\nBits/(Pixel*Frame)                       : 0.175\nStream size                              : 589 MiB (84%)\nWriting library                          : XviD 64\n\nAudio\nID                                       : 1\nFormat                                   : AC-3\nFormat/Info                              : Audio Coding 3\nMode extension                           : CM (complete main)\nFormat settings, Endianness              : Big\nCodec ID                                 : 2000\nDuration                                 : 1h 52mn\nBit rate mode                            : Constant\nBit rate                                 : 128 Kbps\nChannel(s)                               : 2 channels\nChannel positions                        : Front: L R\nSampling rate                            : 48.0 KHz\nBit depth                                : 16 bits\nCompression mode                         : Lossy\nStream size                              : 103 MiB (15%)\nAlignment                                : Aligned on interleaves\nInterleave, duration                     : 32 ms (0.77 video frame)\n\n\n\n\n    \t\n    &lt;a href=&quot;\thttp://www.shotpix.com/images/59509937346155445225.png&quot; rel=&quot;nofollow&quot; target=&quot;_NEW&quot;&gt;\thttp://www.shotpix.com/images/59509937346155445225.png&lt;/a&gt;\n    &lt;a href=&quot;\thttp://www.shotpix.com/images/23994588747127214771.png&quot; rel=&quot;nofollow&quot; target=&quot;_NEW&quot;&gt;\thttp://www.shotpix.com/images/23994588747127214771.png&lt;/a&gt;\n    &lt;a href=&quot;\thttp://www.shotpix.com/images/26202428072197732150.png&quot; rel=&quot;nofollow&quot; target=&quot;_NEW&quot;&gt;\thttp://www.shotpix.com/images/26202428072197732150.png&lt;/a&gt;\n    &lt;a href=&quot;\thttp://www.shotpix.com/images/16166672029240441291.png&quot; rel=&quot;nofollow&quot; target=&quot;_NEW&quot;&gt;\thttp://www.shotpix.com/images/16166672029240441291.png&lt;/a&gt;\n    &lt;a href=&quot;\thttp://www.shotpix.com/images/33943502429103551894.png&quot; rel=&quot;nofollow&quot; target=&quot;_NEW&quot;&gt;\thttp://www.shotpix.com/images/33943502429103551894.png&lt;/a&gt;","torrent":{"xt":"urn:btih:ef5890709a7031f4363943a257d0925b185e5dfb","amp;dn":"Gangster+Squad+2013+WEBRip+XviD+AC3+-+TODE","amp;tr":["udp%3A%2F%2Ftracker.openbittorrent.com%3A80","udp%3A%2F%2Fopen.demonii.com%3A1337","udp%3A%2F%2Ftracker.coppersurfer.tk%3A6969","udp%3A%2F%2Fexodus.desync.com%3A6969"],"infoHash":"ef5890709a7031f4363943a257d0925b185e5dfb","infoHashBuffer":{"type":"Buffer","data":[239,88,144,112,154,112,49,244,54,57,67,162,87,208,146,91,24,94,93,251]},"announce":[],"urlList":[]}}